<svg xmlns="http://www.w3.org/2000/svg" viewBox="-4 -14 928 418" width="928" height="418" font-family="system-ui, -apple-system, sans-serif">
  <rect x="-4" y="-14" width="928" height="418" fill="#ffffff"/>
  <line x1="48" y1="90" x2="48" y2="128" stroke="#1e1e1e" stroke-width="2" stroke-linecap="round"/>
  <polygon points="48.0,128.0 43.3,116.9 52.7,116.9" fill="#1e1e1e"/>
  <rect x="20" y="130" width="56" height="44" rx="4" fill="#e9ecef" stroke="#1e1e1e" stroke-width="2"/>
  <line x1="138" y1="90" x2="138" y2="128" stroke="#1e1e1e" stroke-width="2" stroke-linecap="round"/>
  <polygon points="138.0,128.0 133.3,116.9 142.7,116.9" fill="#1e1e1e"/>
  <rect x="110" y="130" width="56" height="44" rx="4" fill="#e9ecef" stroke="#1e1e1e" stroke-width="2"/>
  <line x1="228" y1="90" x2="228" y2="128" stroke="#1e1e1e" stroke-width="2" stroke-linecap="round"/>
  <polygon points="228.0,128.0 223.3,116.9 232.7,116.9" fill="#1e1e1e"/>
  <rect x="200" y="130" width="56" height="44" rx="4" fill="#e9ecef" stroke="#1e1e1e" stroke-width="2"/>
  <line x1="318" y1="90" x2="318" y2="128" stroke="#1e1e1e" stroke-width="2" stroke-linecap="round"/>
  <polygon points="318.0,128.0 313.3,116.9 322.7,116.9" fill="#1e1e1e"/>
  <rect x="290" y="130" width="56" height="44" rx="4" fill="#e9ecef" stroke="#1e1e1e" stroke-width="2"/>
  <line x1="408" y1="90" x2="408" y2="128" stroke="#1e1e1e" stroke-width="2" stroke-linecap="round"/>
  <polygon points="408.0,128.0 403.3,116.9 412.7,116.9" fill="#1e1e1e"/>
  <rect x="380" y="130" width="56" height="44" rx="4" fill="#e9ecef" stroke="#1e1e1e" stroke-width="2"/>
  <line x1="498" y1="90" x2="498" y2="128" stroke="#1e1e1e" stroke-width="2" stroke-linecap="round"/>
  <polygon points="498.0,128.0 493.3,116.9 502.7,116.9" fill="#1e1e1e"/>
  <rect x="470" y="130" width="56" height="44" rx="4" fill="#e9ecef" stroke="#1e1e1e" stroke-width="2"/>
  <line x1="588" y1="90" x2="588" y2="128" stroke="#1e1e1e" stroke-width="2" stroke-linecap="round"/>
  <polygon points="588.0,128.0 583.3,116.9 592.7,116.9" fill="#1e1e1e"/>
  <rect x="560" y="130" width="56" height="44" rx="4" fill="#e9ecef" stroke="#1e1e1e" stroke-width="2"/>
  <line x1="678" y1="90" x2="678" y2="128" stroke="#1e1e1e" stroke-width="2" stroke-linecap="round"/>
  <polygon points="678.0,128.0 673.3,116.9 682.7,116.9" fill="#1e1e1e"/>
  <rect x="650" y="130" width="56" height="44" rx="4" fill="#e9ecef" stroke="#1e1e1e" stroke-width="2"/>
  <line x1="20" y1="220" x2="900" y2="220" stroke="#868e96" stroke-width="2" stroke-linecap="round" stroke-dasharray="6 4"/>
  <line x1="370" y1="285" x2="370" y2="320" stroke="#2b8a3e" stroke-width="2" stroke-linecap="round"/>
  <polygon points="370.0,320.0 365.3,308.9 374.7,308.9" fill="#2b8a3e"/>
  <rect x="20" y="325" width="700" height="44" rx="4" fill="#b2f2bb" stroke="#2b8a3e" stroke-width="2"/>
  <text x="20" y="28" font-size="20" text-anchor="start" fill="#1e1e1e" font-weight="600">v1 vs v2 — same bytes, one eighth the instructions</text>
  <text x="20" y="75" font-size="16" text-anchor="start" fill="#868e96" font-weight="600">v1  ·  one element per access</text>
  <text x="48" y="156" font-size="14" text-anchor="middle" fill="#1e1e1e">2 B</text>
  <text x="138" y="156" font-size="14" text-anchor="middle" fill="#1e1e1e">2 B</text>
  <text x="228" y="156" font-size="14" text-anchor="middle" fill="#1e1e1e">2 B</text>
  <text x="318" y="156" font-size="14" text-anchor="middle" fill="#1e1e1e">2 B</text>
  <text x="408" y="156" font-size="14" text-anchor="middle" fill="#1e1e1e">2 B</text>
  <text x="498" y="156" font-size="14" text-anchor="middle" fill="#1e1e1e">2 B</text>
  <text x="588" y="156" font-size="14" text-anchor="middle" fill="#1e1e1e">2 B</text>
  <text x="678" y="156" font-size="14" text-anchor="middle" fill="#1e1e1e">2 B</text>
  <text x="760" y="115" font-size="16" text-anchor="start" fill="#1e1e1e" font-weight="600">8 instructions</text>
  <text x="760" y="143" font-size="14" text-anchor="start" fill="#868e96">8x issue cost</text>
  <text x="760" y="175" font-size="16" text-anchor="start" fill="#e03131" font-weight="600">2 884 GB/s</text>
  <text x="20" y="265" font-size="16" text-anchor="start" fill="#868e96" font-weight="600">v2  ·  same eight elements, one access</text>
  <text x="390" y="305" font-size="14" text-anchor="start" fill="#2b8a3e">one 128-bit atom</text>
  <text x="370" y="352" font-size="15" text-anchor="middle" fill="#2b8a3e">16 B  —  8 bf16 elements, contiguous</text>
  <text x="760" y="315" font-size="16" text-anchor="start" fill="#1e1e1e" font-weight="600">1 instruction</text>
  <text x="760" y="343" font-size="14" text-anchor="start" fill="#868e96">same bytes moved</text>
  <text x="760" y="375" font-size="16" text-anchor="start" fill="#2b8a3e" font-weight="600">6 924 GB/s</text>
</svg>
