<svg xmlns="http://www.w3.org/2000/svg" width="1000" height="600" viewBox="0 0 1000 600" font-family="Comic Sans MS, Segoe Print, sans-serif">
<defs><marker id="ah" markerWidth="9" markerHeight="9" refX="7" refY="3" orient="auto" markerUnits="strokeWidth"><path d="M0,0 L7,3 L0,6 Z" fill="#1e1e1e"/></marker></defs>
<rect width="1000" height="600" fill="#ffffff"/>
<text x="40" y="40" font-size="21" fill="#1e1e1e" font-weight="bold">Trading occupancy for ILP: the matrix core gets busier as the tile grows</text>
<text x="40" y="63" font-size="14" fill="#adb5bd">dense MXFP8 matmul on MI355X · bigger per-wave tile = more independent MFMAs in flight</text>
<line x1="140" y1="452" x2="860" y2="452" stroke="#eef0f2" stroke-width="1"/>
<text x="130" y="457" font-size="13" text-anchor="end" fill="#1e1e1e">0</text>
<line x1="140" y1="383" x2="860" y2="383" stroke="#eef0f2" stroke-width="1"/>
<text x="130" y="388" font-size="13" text-anchor="end" fill="#1e1e1e">10</text>
<line x1="140" y1="314" x2="860" y2="314" stroke="#eef0f2" stroke-width="1"/>
<text x="130" y="319" font-size="13" text-anchor="end" fill="#1e1e1e">20</text>
<line x1="140" y1="246" x2="860" y2="246" stroke="#eef0f2" stroke-width="1"/>
<text x="130" y="251" font-size="13" text-anchor="end" fill="#1e1e1e">30</text>
<line x1="140" y1="177" x2="860" y2="177" stroke="#eef0f2" stroke-width="1"/>
<text x="130" y="182" font-size="13" text-anchor="end" fill="#1e1e1e">40</text>
<line x1="140" y1="108" x2="860" y2="108" stroke="#eef0f2" stroke-width="1"/>
<text x="130" y="113" font-size="13" text-anchor="end" fill="#1e1e1e">50</text>
<text x="872" y="399" font-size="13" text-anchor="start" fill="#2f9e44">0.70</text>
<text x="872" y="313" font-size="13" text-anchor="start" fill="#2f9e44">0.80</text>
<text x="872" y="227" font-size="13" text-anchor="start" fill="#2f9e44">0.90</text>
<text x="872" y="141" font-size="13" text-anchor="start" fill="#2f9e44">1.00</text>
<line x1="140" y1="452" x2="140" y2="102" stroke="#1e1e1e" stroke-width="2" marker-end="url(#ah)"/>
<line x1="860" y1="452" x2="860" y2="102" stroke="#2f9e44" stroke-width="2" marker-end="url(#ah)"/>
<line x1="140" y1="452" x2="860" y2="452" stroke="#1e1e1e" stroke-width="2"/>
<text x="34" y="280" font-size="14" text-anchor="middle" fill="#1e1e1e" font-weight="bold" transform="rotate(-90 34 280)">Occupancy / MFMA util (%)</text>
<text x="978" y="280" font-size="14" text-anchor="middle" fill="#2f9e44" font-weight="bold" transform="rotate(90 978 280)">Throughput (relative to peak)</text>
<polyline points="180,138 340,223 500,299 660,295 820,291" fill="none" stroke="#e03131" stroke-width="3"/>
<polyline points="180,253 340,222 500,181 660,175 820,213" fill="none" stroke="#7048e8" stroke-width="3"/>
<polyline points="180,388 340,299 500,179 660,132 820,215" fill="none" stroke="#2f9e44" stroke-width="3"/>
<circle cx="180" cy="138" r="6" fill="#ffffff" stroke="#e03131" stroke-width="3"/>
<circle cx="180" cy="253" r="6" fill="#ffffff" stroke="#7048e8" stroke-width="3"/>
<circle cx="180" cy="388" r="6" fill="#2f9e44" stroke="#1e1e1e" stroke-width="2"/>
<text x="180" y="474" font-size="13" text-anchor="middle" fill="#1e1e1e" font-weight="bold">64x64</text>
<text x="180" y="491" font-size="11" text-anchor="middle" fill="#adb5bd">60 VGPR</text>
<circle cx="340" cy="223" r="6" fill="#ffffff" stroke="#e03131" stroke-width="3"/>
<circle cx="340" cy="222" r="6" fill="#ffffff" stroke="#7048e8" stroke-width="3"/>
<circle cx="340" cy="299" r="6" fill="#2f9e44" stroke="#1e1e1e" stroke-width="2"/>
<text x="340" y="474" font-size="13" text-anchor="middle" fill="#1e1e1e" font-weight="bold">128x64</text>
<text x="340" y="491" font-size="11" text-anchor="middle" fill="#adb5bd">80 VGPR</text>
<circle cx="500" cy="299" r="6" fill="#ffffff" stroke="#e03131" stroke-width="3"/>
<circle cx="500" cy="181" r="6" fill="#ffffff" stroke="#7048e8" stroke-width="3"/>
<circle cx="500" cy="179" r="6" fill="#2f9e44" stroke="#1e1e1e" stroke-width="2"/>
<text x="500" y="474" font-size="13" text-anchor="middle" fill="#1e1e1e" font-weight="bold">128x128</text>
<text x="500" y="491" font-size="11" text-anchor="middle" fill="#adb5bd">112 VGPR</text>
<circle cx="660" cy="295" r="6" fill="#ffffff" stroke="#e03131" stroke-width="3"/>
<circle cx="660" cy="175" r="6" fill="#ffffff" stroke="#7048e8" stroke-width="3"/>
<circle cx="660" cy="132" r="6" fill="#2f9e44" stroke="#1e1e1e" stroke-width="2"/>
<text x="660" y="474" font-size="13" text-anchor="middle" fill="#1e1e1e" font-weight="bold">256x128</text>
<text x="660" y="491" font-size="11" text-anchor="middle" fill="#adb5bd">112 VGPR</text>
<circle cx="820" cy="291" r="6" fill="#ffffff" stroke="#e03131" stroke-width="3"/>
<circle cx="820" cy="213" r="6" fill="#ffffff" stroke="#7048e8" stroke-width="3"/>
<circle cx="820" cy="215" r="6" fill="#2f9e44" stroke="#1e1e1e" stroke-width="2"/>
<text x="820" y="474" font-size="13" text-anchor="middle" fill="#1e1e1e" font-weight="bold">256x256</text>
<text x="820" y="491" font-size="11" text-anchor="middle" fill="#adb5bd">128 VGPR</text>
<text x="500" y="510" font-size="14" text-anchor="middle" fill="#1e1e1e" font-weight="bold">per-wave output tile (BM x BN)  —  more ILP →</text>
<line x1="720" y1="106" x2="660" y2="124" stroke="#adb5bd" stroke-width="1.5" stroke-dasharray="4 4"/>
<rect x="624" y="74" width="192" height="30" rx="10" fill="#ffec99" stroke="#1e1e1e" stroke-width="2"/>
<text x="720" y="94" font-size="13" text-anchor="middle" fill="#1e1e1e" font-weight="bold">peak throughput @ 22.8% occ</text>
<text x="820" y="241" font-size="12" text-anchor="middle" fill="#e03131">spills (knee)</text>
<line x1="148" y1="116" x2="174" y2="116" stroke="#e03131" stroke-width="3"/><text x="180" y="120" font-size="13" fill="#1e1e1e">occupancy</text>
<line x1="298" y1="116" x2="324" y2="116" stroke="#7048e8" stroke-width="3"/><text x="330" y="120" font-size="13" fill="#1e1e1e">MFMA util</text>
<line x1="448" y1="116" x2="474" y2="116" stroke="#2f9e44" stroke-width="3"/><text x="480" y="120" font-size="13" fill="#1e1e1e">throughput</text>
</svg>