<svg xmlns="http://www.w3.org/2000/svg" viewBox="0 0 1100 620" width="1100" height="620" font-family="system-ui, -apple-system, sans-serif">
  <text x="550" y="30" text-anchor="middle" font-size="22" font-weight="600" fill="#1e1e1e">Floating-Point Bit Layouts: FP32 → MXFP8</text>

  <!-- FP32 -->
  <text x="30" y="90" font-size="15" fill="#1e1e1e">FP32</text>
  <rect x="80" y="70" width="700" height="36" fill="#f1f3f5" stroke="#ced4da" stroke-width="1"/>
  <rect x="80" y="70" width="44" height="36" fill="#ffd8a8" stroke="#ced4da" stroke-width="1"/>
  <text x="102" y="93" text-anchor="middle" font-size="14" fill="#1e1e1e">S</text>
  <rect x="124" y="70" width="362" height="36" fill="#a5d8ff" stroke="#ced4da" stroke-width="1"/>
  <text x="305" y="93" text-anchor="middle" font-size="14" fill="#1e1e1e">8-bit exponent</text>
  <rect x="486" y="70" width="294" height="36" fill="#b2f2bb" stroke="#ced4da" stroke-width="1"/>
  <text x="633" y="93" text-anchor="middle" font-size="14" fill="#1e1e1e">23-bit mantissa</text>
  <text x="790" y="93" font-size="12" fill="#868e96">Range: ±3.4×10³⁸, 10⁻⁷ precision</text>

  <!-- BF16 -->
  <text x="30" y="145" font-size="15" fill="#1e1e1e">BF16</text>
  <rect x="80" y="125" width="700" height="36" fill="#f1f3f5" stroke="#ced4da" stroke-width="1"/>
  <rect x="80" y="125" width="44" height="36" fill="#ffd8a8" stroke="#ced4da" stroke-width="1"/>
  <text x="102" y="148" text-anchor="middle" font-size="14" fill="#1e1e1e">S</text>
  <rect x="124" y="125" width="362" height="36" fill="#a5d8ff" stroke="#ced4da" stroke-width="1"/>
  <text x="305" y="148" text-anchor="middle" font-size="14" fill="#1e1e1e">8-bit exponent</text>
  <rect x="486" y="125" width="294" height="36" fill="#b2f2bb" stroke="#ced4da" stroke-width="1"/>
  <text x="633" y="148" text-anchor="middle" font-size="14" fill="#1e1e1e">7-bit mantissa</text>
  <text x="790" y="148" font-size="12" fill="#868e96">Range: ±3.4×10³⁸, 0.4% precision</text>

  <!-- FP8 E5M2 -->
  <text x="30" y="200" font-size="15" fill="#1e1e1e">E5M2</text>
  <rect x="80" y="180" width="350" height="36" fill="#f1f3f5" stroke="#ced4da" stroke-width="1"/>
  <rect x="80" y="180" width="44" height="36" fill="#ffd8a8" stroke="#ced4da" stroke-width="1"/>
  <text x="102" y="203" text-anchor="middle" font-size="14" fill="#1e1e1e">S</text>
  <rect x="124" y="180" width="219" height="36" fill="#a5d8ff" stroke="#ced4da" stroke-width="1"/>
  <text x="233" y="203" text-anchor="middle" font-size="14" fill="#1e1e1e">5-bit exponent</text>
  <rect x="343" y="180" width="87" height="36" fill="#b2f2bb" stroke="#ced4da" stroke-width="1"/>
  <text x="387" y="203" text-anchor="middle" font-size="14" fill="#1e1e1e">M2</text>
  <text x="440" y="203" font-size="12" fill="#868e96">Range: ±57344, 25% precision — wide, coarse</text>

  <!-- FP8 E4M3 -->
  <text x="30" y="255" font-size="15" fill="#1e1e1e">E4M3</text>
  <rect x="80" y="235" width="350" height="36" fill="#f1f3f5" stroke="#ced4da" stroke-width="1"/>
  <rect x="80" y="235" width="44" height="36" fill="#ffd8a8" stroke="#ced4da" stroke-width="1"/>
  <text x="102" y="258" text-anchor="middle" font-size="14" fill="#1e1e1e">S</text>
  <rect x="124" y="235" width="175" height="36" fill="#a5d8ff" stroke="#ced4da" stroke-width="1"/>
  <text x="211" y="258" text-anchor="middle" font-size="14" fill="#1e1e1e">4-bit exponent</text>
  <rect x="299" y="235" width="131" height="36" fill="#b2f2bb" stroke="#ced4da" stroke-width="1"/>
  <text x="364" y="258" text-anchor="middle" font-size="14" fill="#1e1e1e">M3</text>
  <text x="440" y="258" font-size="12" fill="#c92a2a">Range: ±448, 6% precision — narrow, precise</text>

  <!-- E4M3 annotation line -->
  <line x1="380" y1="265" x2="500" y2="300" stroke="#c92a2a" stroke-width="1" stroke-dasharray="4,3"/>
  <text x="505" y="295" font-size="11" fill="#c92a2a">E4M3: max ±448</text>
  <text x="505" y="310" font-size="11" fill="#c92a2a">overflows beyond this</text>

  <!-- Legend -->
  <text x="80" y="430" font-size="12" fill="#868e96">Legend:</text>
  <rect x="140" y="420" width="14" height="14" fill="#ffd8a8" stroke="#ced4da" stroke-width="1"/>
  <text x="160" y="431" font-size="12" fill="#1e1e1e">Sign</text>
  <rect x="210" y="420" width="14" height="14" fill="#a5d8ff" stroke="#ced4da" stroke-width="1"/>
  <text x="230" y="431" font-size="12" fill="#1e1e1e">Exponent</text>
  <rect x="310" y="420" width="14" height="14" fill="#b2f2bb" stroke="#ced4da" stroke-width="1"/>
  <text x="330" y="431" font-size="12" fill="#1e1e1e">Mantissa</text>
  <rect x="410" y="420" width="14" height="14" fill="#ffc9c9" stroke="#ff8787" stroke-width="1"/>
  <text x="430" y="431" font-size="12" fill="#1e1e1e">Block Scale (for MXFP8)</text>

  <!-- Overhead comparison -->
  <rect x="80" y="460" width="940" height="130" fill="#f8f9fa" stroke="#dee2e6" stroke-width="1.5" rx="6"/>
  <text x="100" y="485" font-size="14" font-weight="600" fill="#1e1e1e">Storage Overhead at Different Block Sizes</text>
  <text x="100" y="510" font-size="12" fill="#495057">Block size = 8:    8-bit scale ÷ 64-bit data  = 12.5% overhead — too expensive</text>
  <text x="100" y="528" font-size="12" fill="#2b8a3e" font-weight="600">Block size = 32:   8-bit scale ÷ 256-bit data = 3.1% overhead — sweet spot ✓</text>
  <text x="100" y="546" font-size="12" fill="#495057">Block size = 64:   8-bit scale ÷ 512-bit data = 1.6% overhead — but 64 elements per scale smears range</text>
  <text x="100" y="564" font-size="12" fill="#495057">Block size = 128:  8-bit scale ÷ 1024-bit data = 0.8% overhead — too coarse, precision loss dominates</text>
  <text x="100" y="582" font-size="12" fill="#868e96">32 is the Pareto-optimal point: negligible overhead with fine-grained outlier containment.</text>
</svg>